<?xml version="1.0" encoding="UTF-8"?>
<!DOCTYPE svg PUBLIC "-//W3C//DTD SVG 1.1//EN" "http://www.w3.org/Graphics/SVG/1.1/DTD/svg11.dtd">
<!-- Creator: CorelDRAW 2021 (64-Bit) -->
<svg xmlns="http://www.w3.org/2000/svg" xml:space="preserve" width="148mm" height="210mm" version="1.1" style="shape-rendering:geometricPrecision; text-rendering:geometricPrecision; image-rendering:optimizeQuality; fill-rule:evenodd; clip-rule:evenodd"
viewBox="0 0 14800 21000"
 xmlns:xlink="http://www.w3.org/1999/xlink"
 xmlns:xodm="http://www.corel.com/coreldraw/odm/2003">
 <defs>
   <clipPath id="id0">
    <path d="M6807.58 10728.14c3.11,3.25 6.76,3.42 11.02,3.42 17.47,0 44.92,-2.5 80.47,-5.62 35.55,-3.11 79.21,-6.86 120.37,-13.72 41.17,-6.86 79.84,-16.84 121,-33.68 41.17,-16.84 84.83,-40.54 122.87,-64.24 38.05,-23.7 70.49,-47.4 96.06,-66.11 25.57,-18.71 44.28,-32.44 55.5,-36.81 11.23,-4.36 14.98,0.63 29.32,16.22 14.35,15.6 39.3,41.79 79.84,69.23 40.54,27.45 96.68,56.14 145.95,76.72 49.27,20.58 91.69,33.06 140.34,40.54 48.65,7.49 103.53,9.98 148.44,9.98 44.91,0 79.84,-2.49 113.52,-10.6 33.68,-8.11 66.11,-21.83 84.82,-33.06 18.71,-11.22 23.7,-19.96 28.69,-9.36 4.99,10.61 9.98,40.55 13.72,116.64 3.75,76.1 6.24,198.34 0,301.25 -6.23,102.92 -21.2,186.5 -44.9,275.69 -23.7,89.19 -56.14,184 -107.91,288.16 -51.76,104.16 -122.87,217.67 -193.97,309.36 -71.1,91.69 -142.21,161.54 -216.43,223.91 -74.22,62.38 -151.56,117.26 -193.98,142.21 -42.41,24.95 -49.89,19.96 -99.17,-19.34 -49.27,-39.29 -140.34,-112.89 -219.55,-190.23 -79.21,-77.34 -146.57,-158.42 -205.83,-238.88 -59.25,-80.46 -110.39,-160.29 -149.69,-255.1 -39.29,-94.8 -66.74,-204.58 -87.32,-288.16 -20.58,-83.57 -34.3,-140.96 -40.54,-248.24 -5.82,-100.19 -5.12,-243.9 -2.46,-424.54 52.72,23.41 87.9,44.06 114.13,55.1 21.1,8.88 36.4,11.54 55.69,9.26z"/>
   </clipPath>
 </defs>
 <g id="Layer_x0020_1">
  <metadata id="CorelCorpID_0Corel-Layer"/>
  <g style="clip-path:url(#id0)">
   <image x="5434.63" y="9685.91" width="4233.32" height="4233.32" xlink:href="logo_Images\logo_ImgID1.png"/>
  </g>
 </g>
</svg>
